<svg width="18" height="18" viewBox="0 0 18 18" fill="none" xmlns="http://www.w3.org/2000/svg">
<path d="M1.78418 11.7158C1.3623 12.1376 1.125 12.71 1.125 13.3069V14.9062L0 16.8749L1.125 17.9999L3.09375 16.8749H4.69301C5.28961 16.8749 5.86195 16.638 6.28383 16.2161L10.736 11.7646L6.23602 7.26462L1.78418 11.7158ZM17.0114 0.988525C15.6941 -0.329834 13.5562 -0.329834 12.2389 0.988525L9.52875 3.69872L9.0682 3.23817C8.73633 2.9063 8.2016 2.91087 7.875 3.23817L6.43465 4.67853C6.10523 5.00794 6.10523 5.54232 6.43465 5.87173L12.1279 11.5649C12.4597 11.8968 12.9945 11.8922 13.3211 11.5649L14.7614 10.1249C15.0908 9.79552 15.0908 9.26114 14.7614 8.93173L14.3009 8.47118L17.0111 5.76099C18.3298 4.44333 18.3298 2.30653 17.0114 0.988525Z" fill="#D9D9D9"/>
</svg>
