<svg width="17" height="5" viewBox="0 0 17 5" fill="none" xmlns="http://www.w3.org/2000/svg">
<path d="M10.9677 2.5C10.9677 3.88194 9.86411 5 8.5 5C7.13589 5 6.03226 3.88194 6.03226 2.5C6.03226 1.11806 7.13589 0 8.5 0C9.86411 0 10.9677 1.11806 10.9677 2.5ZM14.5323 0C13.1681 0 12.0645 1.11806 12.0645 2.5C12.0645 3.88194 13.1681 5 14.5323 5C15.8964 5 17 3.88194 17 2.5C17 1.11806 15.8964 0 14.5323 0ZM2.46774 0C1.10363 0 0 1.11806 0 2.5C0 3.88194 1.10363 5 2.46774 5C3.83185 5 4.93548 3.88194 4.93548 2.5C4.93548 1.11806 3.83185 0 2.46774 0Z" fill="#454545"/>
</svg>
