<svg width="22" height="22" viewBox="0 0 22 22" fill="none" xmlns="http://www.w3.org/2000/svg">
<path d="M21.5169 7.32954L21.8657 5.37642C21.9298 5.01728 21.6537 4.6875 21.2889 4.6875H17.6361L18.3501 0.688916C18.4142 0.329785 18.1381 0 17.7733 0H15.7893C15.6518 2.49837e-06 15.5186 0.0483884 15.4132 0.136685C15.3077 0.224982 15.2367 0.347561 15.2125 0.482959L14.4617 4.6875H9.64551L10.3595 0.688916C10.4237 0.329785 10.1476 0 9.78272 0H7.79874C7.6612 2.49837e-06 7.52804 0.0483884 7.42259 0.136685C7.31713 0.224982 7.2461 0.347561 7.22193 0.482959L6.4711 4.6875H2.60899C2.47145 4.6875 2.3383 4.73589 2.23284 4.82419C2.12739 4.91248 2.05636 5.03506 2.03218 5.17046L1.6834 7.12358C1.61929 7.48272 1.89542 7.8125 2.26021 7.8125H5.91304L4.79698 14.0625H0.934869C0.79733 14.0625 0.664175 14.1109 0.558721 14.1992C0.453267 14.2875 0.382234 14.4101 0.358062 14.5455L0.00928272 16.4986C-0.0548286 16.8577 0.221294 17.1875 0.586089 17.1875H4.23892L3.52491 21.1861C3.4608 21.5452 3.73692 21.875 4.10171 21.875H6.0857C6.22324 21.875 6.35639 21.8266 6.46185 21.7383C6.5673 21.65 6.63833 21.5274 6.6625 21.392L7.41338 17.1875H12.2295L11.5155 21.1861C11.4513 21.5452 11.7274 21.875 12.0923 21.875H14.0763C14.2138 21.875 14.347 21.8266 14.4524 21.7383C14.5579 21.65 14.6289 21.5274 14.6531 21.392L15.4039 17.1875H19.266C19.4036 17.1875 19.5367 17.1391 19.6422 17.0508C19.7476 16.9625 19.8187 16.8399 19.8428 16.7045L20.1916 14.7514C20.2557 14.3923 19.9796 14.0625 19.6148 14.0625H15.962L17.078 7.8125H20.9401C21.0777 7.8125 21.2108 7.76411 21.3163 7.67581C21.4217 7.58752 21.4928 7.46494 21.5169 7.32954ZM12.7876 14.0625H7.97144L9.0875 7.8125H13.9036L12.7876 14.0625Z" fill="black"/>
</svg>
