<svg width="37" height="37" viewBox="0 0 37 37" fill="none" xmlns="http://www.w3.org/2000/svg">
<path id="Vector" d="M37 18.5C37 28.7198 28.7048 37 18.4702 37C9.98105 37 2.83468 31.3083 0.641532 23.5427L7.74315 26.4744C8.22057 28.869 10.3466 30.6817 12.8829 30.6817C15.8071 30.6817 18.2464 28.2647 18.1196 25.1988L24.423 20.7081C28.3095 20.805 31.5694 17.6571 31.5694 13.7333C31.5694 9.88407 28.4363 6.75847 24.5796 6.75847C20.723 6.75847 17.5899 9.89153 17.5899 13.7333V13.8228L13.1738 20.2157C12.0175 20.1486 10.8837 20.4694 9.92883 21.1183L0 17.0155C0.760887 7.48952 8.73528 0 18.4702 0C28.7048 0 37 8.28024 37 18.5ZM11.6147 28.0708L9.33952 27.1308C9.75761 27.999 10.4795 28.6838 11.3685 29.0554C13.3752 29.8909 15.6802 28.9361 16.5157 26.9369C16.9185 25.9671 16.926 24.9004 16.5232 23.9306C16.1204 22.9609 15.3669 22.2 14.3972 21.7972C13.4349 21.3944 12.4054 21.4093 11.4954 21.7524L13.8452 22.7222C15.3222 23.3339 16.0234 25.0272 15.4042 26.5042C14.7851 27.9887 13.0917 28.6825 11.6147 28.0708ZM24.5796 18.3806C22.0135 18.3806 19.9248 16.2919 19.9248 13.7333C19.9248 11.1746 22.0135 9.08589 24.5796 9.08589C27.1458 9.08589 29.2345 11.1746 29.2345 13.7333C29.2345 16.2919 27.1532 18.3806 24.5796 18.3806ZM24.5871 17.2169C26.5192 17.2169 28.0857 15.6504 28.0857 13.7258C28.0857 11.7938 26.5192 10.2347 24.5871 10.2347C22.655 10.2347 21.0885 11.8012 21.0885 13.7258C21.096 15.6504 22.6625 17.2169 24.5871 17.2169Z" fill="url(#paint0_linear_55_9)"/>
<defs>
<linearGradient id="paint0_linear_55_9" x1="18.5" y1="0" x2="18.5" y2="37" gradientUnits="userSpaceOnUse">
<stop stop-color="#060D16"/>
<stop offset="1" stop-color="#007CB1"/>
</linearGradient>
</defs>
</svg>
