<svg width="22" height="22" viewBox="0 0 22 22" fill="none" xmlns="http://www.w3.org/2000/svg">
<path d="M21.0938 18.75H19.9507L13.5684 1.05908C13.4632 0.750166 13.264 0.481918 12.9987 0.291977C12.7333 0.102036 12.4152 -6.49441e-05 12.0889 3.09924e-08H9.78613C9.45982 -6.49441e-05 9.14167 0.102036 8.87633 0.291977C8.61099 0.481918 8.41178 0.750166 8.30664 1.05908L1.92432 18.75H0.78125C0.57405 18.75 0.375336 18.8323 0.228823 18.9788C0.08231 19.1253 0 19.324 0 19.5312L0 21.0938C0 21.301 0.08231 21.4997 0.228823 21.6462C0.375336 21.7927 0.57405 21.875 0.78125 21.875H7.03125C7.23845 21.875 7.43716 21.7927 7.58368 21.6462C7.73019 21.4997 7.8125 21.301 7.8125 21.0938V19.5312C7.8125 19.324 7.73019 19.1253 7.58368 18.9788C7.43716 18.8323 7.23845 18.75 7.03125 18.75H6.0752L7.21289 15.625H14.6621L15.7998 18.75H14.8438C14.6365 18.75 14.4378 18.8323 14.2913 18.9788C14.1448 19.1253 14.0625 19.324 14.0625 19.5312V21.0938C14.0625 21.301 14.1448 21.4997 14.2913 21.6462C14.4378 21.7927 14.6365 21.875 14.8438 21.875H21.0938C21.301 21.875 21.4997 21.7927 21.6462 21.6462C21.7927 21.4997 21.875 21.301 21.875 21.0938V19.5312C21.875 19.324 21.7927 19.1253 21.6462 18.9788C21.4997 18.8323 21.301 18.75 21.0938 18.75ZM8.63525 11.7188L10.9375 5.396L13.2397 11.7188H8.63525Z" fill="black"/>
</svg>
