<svg fill="none" height="14" viewBox="0 0 12 14" width="12" xmlns="http://www.w3.org/2000/svg"><path d="m11.5714.875004h-3.21426l-.25178-.511327c-.05334-.109317-.1355-.201272-.23724-.2655195-.10174-.064248-.21902-.0982403-.33866-.09815271h-3.0616c-.11937-.00046841-.23644.03339711-.33782.09771661-.10138.0643196-.18296.1564916-.2354.2659556l-.25178.511327h-3.214289c-.113664 0-.222673.046094-.303045.128146-.0803731.08204-.125526.19332-.125526.30935v.875c0 .11604.0451529.22732.125526.30936.080372.08205.189381.12814.303045.12814h11.142829c.1137 0 .2227-.04609.3031-.12814.0803-.08204.1255-.19332.1255-.30936v-.875c0-.11603-.0452-.22731-.1255-.30935-.0804-.082052-.1894-.128146-.3031-.128146zm-10.1464 11.894496c.02044.3332.16451.646.40287.8746.23837.2286.55311.3559.88017.3559h6.58392c.32706 0 .6418-.1273.88014-.3559.2384-.2286.3825-.5414.4029-.8746l.5679-9.2695h-10.285757z"/></svg>