<svg width="26" height="18" viewBox="0 0 26 18" fill="none" xmlns="http://www.w3.org/2000/svg">
<path d="M21.3309 7.77219C21.4911 7.35422 21.5809 6.89719 21.5809 6.42062C21.5809 4.35031 19.9012 2.67062 17.8309 2.67062C17.0614 2.67062 16.3426 2.905 15.7489 3.30344C14.6668 1.42844 12.6473 0.170624 10.3309 0.170624C6.87778 0.170624 4.0809 2.9675 4.0809 6.42062C4.0809 6.52609 4.08481 6.63156 4.08871 6.73703C1.90121 7.50656 0.330902 9.5925 0.330902 12.0456C0.330902 15.1511 2.85043 17.6706 5.9559 17.6706H20.3309C23.0926 17.6706 25.3309 15.4323 25.3309 12.6706C25.3309 10.2527 23.6122 8.23312 21.3309 7.77219ZM15.6981 10.1706H13.1434V14.5456C13.1434 14.8894 12.8622 15.1706 12.5184 15.1706H10.6434C10.2997 15.1706 10.0184 14.8894 10.0184 14.5456V10.1706H7.46371C6.90512 10.1706 6.62778 9.49875 7.02231 9.10422L11.1395 4.98703C11.3817 4.74484 11.7801 4.74484 12.0223 4.98703L16.1395 9.10422C16.534 9.49875 16.2528 10.1706 15.6981 10.1706Z" fill="black"/>
</svg>
